<?xml version="1.0" encoding="utf-8"?>
<!-- Generator: Adobe Illustrator 19.0.1, SVG Export Plug-In . SVG Version: 6.00 Build 0)  -->
<!DOCTYPE svg PUBLIC "-//W3C//DTD SVG 1.1//EN" "http://www.w3.org/Graphics/SVG/1.1/DTD/svg11.dtd">
<svg version="1.1" id="Layer_1" xmlns="http://www.w3.org/2000/svg" xmlns:xlink="http://www.w3.org/1999/xlink" x="0px" y="0px"
	 viewBox="0 0 123.6 45.3" enable-background="new 0 0 123.6 45.3" xml:space="preserve">
<g>
	<path fill="#E95F29" d="M22.6,34l-2-5.9H9.3L7.2,34H0L13,2.3h5.3L30.1,34H22.6z M11.2,22.8h7.6l-3.7-10.6h0L11.2,22.8z"/>
	<path fill="#E95F29" d="M40.2,34h-6.4V0h6.4V34z"/>
	<path fill="#E95F29" d="M52,10.1l0.5,2.9c1.7-2.6,4.9-3.5,7.4-3.5c6.3,0,11.1,5.6,11.1,12.5c0,6.7-4.7,12.4-11.1,12.4
		c-2.3,0-5.2-0.8-7-2.9v13.6h-6.4V10.1H52z M52.9,26.4c1.6,1.9,3.5,2.6,5.5,2.6c4.1,0,6-3.7,6-7c0-3.5-2.2-6.8-5.9-6.8
		c-2,0-4.2,0.8-5.6,3.2V26.4z"/>
	<path fill="#E95F29" d="M82.1,13c1.9-2.3,4.6-3.4,7-3.4c2.6,0,4.8,1.2,6.3,3.1c1.9,2.4,2.1,5.5,2.1,8.9V34h-6.4v-12
		c0-1.8,0-3.8-0.7-5.1c-0.6-1.2-1.8-1.7-3.2-1.7c-1.9,0-4,1.1-5.2,3V34h-6.4V0h6.4V13z"/>
	<path fill="#E95F29" d="M118.1,34l-0.5-2c-1.5,1.9-3.9,2.6-6.5,2.6c-4.4,0-8.6-2.7-8.6-7.6c0-5.8,5.4-7.7,10.4-7.7
		c1.3,0,2.8,0.2,4.3,0.5v-0.4c0-3-1.2-4.8-4.7-4.8c-2.7,0-5.1,1-7.2,2.1l-1.7-4.6c3-1.5,6.7-2.4,10.2-2.4c6.6,0,9.8,3.8,9.8,10.1V34
		H118.1z M117.2,23.6c-1.2-0.3-2.3-0.4-3.3-0.4c-2.4,0-5.1,0.9-5.1,3.7c0,2.1,1.7,3.2,3.6,3.2c1.9,0,3.4-0.8,4.8-2V23.6z"/>
</g>
</svg>
